{"title":"The Siege of Jadotville 2016 WEBRip x264-FGT","uid":15985934,"size":993066903,"categoryP":"video","categoryS":"movies","magnet":"?xt=urn:btih:ee0ea859d3bdb3bc23df3edc5b211c4c276738ba&amp;dn=The+Siege+of+Jadotville+2016+WEBRip+x264-FGT&amp;tr=udp%3A%2F%2Ftracker.leechers-paradise.org%3A6969&amp;tr=udp%3A%2F%2Fzer0day.ch%3A1337&amp;tr=udp%3A%2F%2Fopen.demonii.com%3A1337&amp;tr=udp%3A%2F%2Ftracker.coppersurfer.tk%3A6969&amp;tr=udp%3A%2F%2Fexodus.desync.com%3A6969","seeders":12,"leechers":7,"uploader":"PirateNeon2","files":1,"time":1475969222,"description":"Plot:\tIrish Commandant Pat Quinlan leads a stand off with troops against French and Belgian Mercenaries in the Congo during in the early 1960s.\r\n\r\nVideo\r\nID                                       : 1\r\nFormat                                   : AVC\r\nFormat/Info                              : Advanced Video Codec\r\nFormat profile                           :   \r\nFormat settings, CABAC                   : Yes\r\nFormat settings, ReFrames                : 5 frames\r\nCodec ID                                 : avc1\r\nCodec ID/Info                            : Advanced Video Coding\r\nDuration                                 : 1h 48mn\r\nBit rate                                 : 1 100 Kbps\r\nWidth                                    : 720 pixels\r\nHeight                                   : 304 pixels\r\nDisplay aspect ratio                     : 2.40:1\r\nOriginal display aspect ratio            : 2.40:1\r\nFrame rate mode                          : Constant\r\nFrame rate                               : 23.976 (24000/1001) fps\r\nColor space                              : YUV\r\nChroma subsampling                       : 4:2:0\r\nBit depth                                : 8 bits\r\nScan type                                : Progressive\r\nBits/(Pixel*Frame)                       : 0.210\r\nStream size                              : 843 MiB (89%)\r\nTitle                                    : The.Siege.of.Jadotville.2016.WEBRip.x264-FGT\r\n\r\nAudio\r\nID                                       : 2\r\nFormat                                   : AAC\r\nFormat/Info                              : Advanced Audio Codec\r\nFormat profile                           : LC\r\nCodec ID                                 : 40\r\nDuration                                 : 1h 48mn\r\nDuration_LastFrame                       : 43ms\r\nBit rate mode                            : Variable\r\nBit rate                                 : 128 Kbps\r\nMaximum bit rate                         : 31.3 Mbps\r\nChannel(s)                               : 2 channels\r\nChannel positions                        : Front: L R\r\nSampling rate                            : 48.0 KHz\r\nFrame rate                               : 46.875 fps (1024 spf)\r\nCompression mode                         : Lossy\r\nStream size                              : 99.3 MiB (10%)\r\nTitle                                    : The.Siege.of.Jadotville.2016.WEBRip.x264-FGT\r\nLanguage                                 : English\r\nDefault                                  : Yes\r\nAlternate group                          : 1","torrent":{"xt":"urn:btih:ee0ea859d3bdb3bc23df3edc5b211c4c276738ba","amp;dn":"The+Siege+of+Jadotville+2016+WEBRip+x264-FGT","amp;tr":["udp%3A%2F%2Ftracker.leechers-paradise.org%3A6969","udp%3A%2F%2Fzer0day.ch%3A1337","udp%3A%2F%2Fopen.demonii.com%3A1337","udp%3A%2F%2Ftracker.coppersurfer.tk%3A6969","udp%3A%2F%2Fexodus.desync.com%3A6969"],"infoHash":"ee0ea859d3bdb3bc23df3edc5b211c4c276738ba","infoHashBuffer":{"type":"Buffer","data":[238,14,168,89,211,189,179,188,35,223,62,220,91,33,28,76,39,103,56,186]},"announce":[],"urlList":[]}}